<?xml version="1.0" encoding="UTF-8"?>
<svg version="1.1" xmlns="http://www.w3.org/2000/svg" width="2480" height="3508">
<path d="M0 0 C1.75860352 -0.01836914 1.75860352 -0.01836914 3.55273438 -0.03710938 C10.5333998 -0.04880228 16.92226853 0.4688874 23.6875 2.1875 C24.47584229 2.37948975 25.26418457 2.57147949 26.07641602 2.76928711 C41.26246551 6.62642937 54.34173563 12.50854114 66.484375 22.49609375 C72.11507281 26.81895218 78.3949785 30.25538047 84.94921875 32.9453125 C90.38768567 35.32542415 94.83531596 38.74656092 99.5 42.375 C101.26944481 43.72927961 103.03897565 45.08344683 104.80859375 46.4375 C106.07292236 47.41203125 106.07292236 47.41203125 107.36279297 48.40625 C109.28084885 49.87591349 111.2099658 51.32352101 113.16015625 52.75 C129.85898223 64.9763275 146.23918114 79.15451696 158.73046875 95.734375 C161.2503808 98.89306715 164.02670501 101.76410362 166.8125 104.6875 C171.05203869 109.16097131 174.34981105 113.54932313 177.32421875 118.98046875 C179.17134743 121.97080601 181.52236032 124.13566753 184.07421875 126.5234375 C186.82839366 129.36430557 189.6875 133.11850174 189.6875 137.1875 C190.3475 137.39375 191.0075 137.6 191.6875 137.8125 C195.14244442 139.39601619 197.78123259 141.46539431 200.72265625 143.84765625 C203.99459827 146.07882148 207.24704935 146.31107473 211.13671875 146.43359375 C212.40999023 146.48290039 212.40999023 146.48290039 213.70898438 146.53320312 C215.46668863 146.59372481 217.22450482 146.65108966 218.98242188 146.70507812 C224.04198769 146.90715573 228.71616839 147.50427235 233.63549805 148.70385742 C237.49874457 149.61439774 241.44631714 150.02165501 245.37890625 150.52734375 C252.21841451 151.89201541 258.37448145 154.8619641 264.5625 158 C265.25794922 158.3511084 265.95339844 158.7022168 266.66992188 159.06396484 C274.3167501 162.96370524 281.63076115 167.15691211 288.421875 172.4296875 C290.20533447 173.81340606 292.0125764 175.16647436 293.828125 176.5078125 C299.46853653 180.69771647 304.7022286 184.83840827 309.1484375 190.3359375 C310.71500477 192.22058949 312.39377951 193.83270915 314.1875 195.5 C318.57555159 199.79930448 321.52192779 204.96470453 324.6875 210.1875 C325.3475 211.1775 326.0075 212.1675 326.6875 213.1875 C341.19339091 234.94633637 352.54046845 258.37389979 357.6875 284.1875 C357.94587646 285.42258301 357.94587646 285.42258301 358.20947266 286.68261719 C360.3926514 297.14740945 362.32121161 307.47722736 362.6875 318.1875 C362.75066406 319.16074219 362.81382812 320.13398437 362.87890625 321.13671875 C363.26133478 330.17930307 360.344532 335.98192133 354.30859375 342.58984375 C342.16852701 354.55439145 324.73266217 353.73593648 308.76618958 353.63426208 C296.57091219 353.43911943 285.31036525 350.69782018 273.6875 347.1875 C272.30629253 346.79970063 270.92481647 346.41285549 269.54296875 346.02734375 C255.95115583 341.91887592 242.92601141 335.32910109 230.6875 328.1875 C229.27597656 327.42759766 229.27597656 327.42759766 227.8359375 326.65234375 C215.90026353 320.07931766 206.42726591 311.08819021 196.75 301.625 C196.04012939 300.94131348 195.33025879 300.25762695 194.59887695 299.55322266 C190.23513826 295.20342232 186.97449617 290.78822107 183.96679688 285.40795898 C182.80842873 283.39739442 181.56598547 281.62582856 180.125 279.8125 C177.40907105 276.09098976 175.843223 272.05301327 174.1484375 267.7890625 C172.04650674 262.60729736 169.74295242 257.51988393 167.45385742 252.41870117 C166.52547766 250.34434198 165.60496902 248.26670275 164.6875 246.1875 C164.27886719 245.26839844 163.87023438 244.34929687 163.44921875 243.40234375 C162.6875 241.1875 162.6875 241.1875 162.6875 237.1875 C161.78386719 237.51105469 160.88023437 237.83460938 159.94921875 238.16796875 C154.54314039 239.70383276 149.07883404 239.51665324 143.5 239.5 C142.43974609 239.51611328 141.37949219 239.53222656 140.28710938 239.54882812 C132.69701007 239.55345341 125.95637738 238.34441511 118.6875 236.1875 C117.98625 237.033125 117.285 237.87875 116.5625 238.75 C115.60488246 239.89643161 114.64649525 241.04222059 113.6875 242.1875 C113.18855225 242.78546387 112.68960449 243.38342773 112.17553711 243.99951172 C109.36293841 247.33279506 106.49158493 250.38343082 103.25 253.3125 C99.44182331 256.95142439 98.34635293 260.59974362 96.828125 265.5546875 C94.92805651 269.94046204 91.51068812 272.46858224 87.6875 275.1875 C88.54730469 275.79335937 89.40710937 276.39921875 90.29296875 277.0234375 C111.66681477 292.14531914 133.0911387 307.89711251 149.5 328.49609375 C151.68819573 331.18835599 153.97079606 333.7532391 156.3125 336.3125 C160.35853452 340.77082474 164.09639457 345.35705258 167.6875 350.1875 C168.48285156 351.23808594 169.27820312 352.28867188 170.09765625 353.37109375 C175.23754735 360.27281444 179.34430293 367.09432871 183.0390625 374.8828125 C184.597804 378.00768291 186.32063841 380.84331988 188.25 383.75 C194.28264332 392.97401936 198.24620008 403.26382945 202.2421875 413.4921875 C203.16765351 415.85837897 204.10894016 418.21848074 205.0703125 420.5703125 C211.56976272 436.7216409 212.87458976 452.32277848 212.87280273 469.51928711 C212.87497998 471.85354115 212.89317636 474.18731396 212.91210938 476.52148438 C212.97795902 494.00589251 212.74150131 510.85263241 199.98046875 524.11328125 C195.05355853 528.57016255 190.67446946 529.41800465 184.15332031 529.34375 C180.07688662 529.08544133 176.24831758 528.18214941 172.3125 527.125 C171.06859497 526.79326782 171.06859497 526.79326782 169.79956055 526.45483398 C162.90543653 524.48864463 157.37933201 521.57030761 151.6875 517.1875 C150.56794922 516.37539062 150.56794922 516.37539062 149.42578125 515.546875 C145.76192588 512.86501414 142.23005684 510.02687263 138.6875 507.1875 C137.84832031 506.52492188 137.00914062 505.86234375 136.14453125 505.1796875 C130.41320403 500.59123942 125.14455429 495.77796505 120.0234375 490.51953125 C117.96581899 488.46535358 115.8620786 486.60244255 113.625 484.75 C109.45570516 481.2052554 106.20355428 477.0555994 102.86328125 472.73828125 C100.78451091 470.12187258 100.78451091 470.12187258 98.1484375 468.23828125 C95.21048571 465.78998809 93.82760804 463.41641844 92 460.0625 C91.31277921 458.80713878 90.62526459 457.55193838 89.9375 456.296875 C89.5765625 455.63107422 89.215625 454.96527344 88.84375 454.27929688 C87.64188341 452.10497403 86.390064 449.96623466 85.125 447.828125 C79.47950108 438.18460547 75.56273792 428.96964221 72.6875 418.1875 C72.13201675 416.28959889 71.5705454 414.39342764 71 412.5 C70.78988281 411.77425781 70.57976562 411.04851562 70.36328125 410.30078125 C69.7082906 408.13214539 69.7082906 408.13214539 68.69921875 405.90625 C67.41872343 402.46522782 66.80462128 398.97939519 66.1875 395.375 C65.36432082 390.64850416 64.41139368 386.02270899 63.21386719 381.37231445 C62.16341321 377.0121509 61.38330716 372.59553846 60.5625 368.1875 C60.28986328 366.73923828 60.28986328 366.73923828 60.01171875 365.26171875 C59.56819403 362.90403473 59.12683495 360.54596769 58.6875 358.1875 C57.85347656 358.58582031 57.01945312 358.98414063 56.16015625 359.39453125 C39.60720803 367.1875 39.60720803 367.1875 33.6875 367.1875 C33.51806885 367.79988525 33.3486377 368.41227051 33.17407227 369.04321289 C31.42465343 375.14256954 29.26921266 380.86168853 26.625 386.625 C26.2336084 387.48697998 25.8422168 388.34895996 25.43896484 389.23706055 C22.37419486 395.89683123 19.02497231 402.37571696 15.56030273 408.83422852 C10.7481715 417.84576908 6.40767621 427.075036 2.04882812 436.31201172 C0.7143269 439.13083443 -0.63259322 441.94333492 -1.984375 444.75390625 C-6.97598477 455.14389804 -11.78439046 465.58692567 -16.3125 476.1875 C-15.42691406 476.47367188 -14.54132813 476.75984375 -13.62890625 477.0546875 C-10.76415826 478.03322333 -8.02737581 479.11441632 -5.25 480.3125 C0.49438996 482.73345238 6.29728186 484.97531204 12.125 487.1875 C13.04112061 487.53707764 13.95724121 487.88665527 14.90112305 488.24682617 C18.72316605 489.701686 22.54486528 491.13725538 26.40234375 492.49609375 C33.07916934 494.88126383 38.79161175 497.92809541 44.75805664 501.68603516 C49.50642589 504.62397929 54.34953827 506.86097093 59.5 509 C68.63470694 512.85718122 76.55201169 518.01652322 84.62255859 523.73535156 C86.50699789 525.06056378 88.41141777 526.34525103 90.33203125 527.6171875 C106.47585592 538.46799232 121.96059008 552.94323123 132.07421875 569.61328125 C133.49828468 571.88558016 135.00503631 573.91800667 136.6875 576 C147.99586526 590.90648147 151.76037439 609.1410639 151.92578125 627.5234375 C151.933853 628.40166168 151.94192474 629.27988586 151.95024109 630.1847229 C151.96400228 632.03865638 151.97475963 633.89261434 151.98266602 635.74658203 C151.99411227 637.60603489 152.01444539 639.46545685 152.04418945 641.32470703 C152.3929036 663.20213676 148.95054325 687.72339771 134.25 705.0625 C133.404375 705.76375 132.55875 706.465 131.6875 707.1875 C131.17574219 707.61546875 130.66398437 708.0434375 130.13671875 708.484375 C121.10075297 715.54696894 111.35459517 716.17022575 100.20703125 714.90625 C94.14959344 713.7912526 89.07151658 711.0764845 83.6875 708.1875 C82.67558594 707.70539062 81.66367188 707.22328125 80.62109375 706.7265625 C72.70183023 702.81934464 66.83683691 698.09887537 60.5625 691.95703125 C57.81967702 689.21327414 57.81967702 689.21327414 55.08203125 687.1796875 C52.317839 684.8799517 50.46466831 682.42247945 48.375 679.5 C45.60163345 675.70728349 42.80036098 672.08789366 39.625 668.625 C33.44160038 661.80489389 28.35547627 654.38412712 23.625 646.5 C21.40240909 642.81869893 19.23447416 639.46713721 16.3125 636.3125 C8.65120331 628.0215077 2.87217328 617.77288569 -2.6640625 608 C-4.29172055 605.22295309 -6.06271083 602.59657931 -7.875 599.9375 C-11.16654541 594.85995909 -13.24071572 589.62948234 -15.18383789 583.93261719 C-16.3603871 580.51972636 -17.65428019 577.44632988 -19.48828125 574.328125 C-21.3125 571.1875 -21.3125 571.1875 -21.3125 569.1875 C-21.92996094 569.69539063 -22.54742188 570.20328125 -23.18359375 570.7265625 C-34.62393628 580.02510574 -45.68410263 587.09303132 -60.3125 590.1875 C-60.38726563 591.00347656 -60.46203125 591.81945313 -60.5390625 592.66015625 C-61.45035863 600.87075565 -63.11943682 608.59645281 -65.3125 616.5625 C-67.70672852 625.35678147 -69.26333351 633.79370857 -70.07519531 642.85400391 C-70.34421936 645.49940702 -70.69356654 648.12731905 -71.0546875 650.76171875 C-72.59018549 662.03768688 -73.7257146 673.13167886 -73.75805664 684.52587891 C-73.89361793 691.74926533 -75.44376034 697.23907313 -80.5625 702.5 C-86.75147411 706.29777957 -91.68733753 707.80879062 -98.98828125 706.7578125 C-105.07763376 705.26361844 -108.75802329 701.12427321 -112.3125 696.1875 C-114.76921274 690.68752372 -114.58019962 685.40438587 -114.5 679.5 C-114.49282959 678.51990967 -114.48565918 677.53981934 -114.47827148 676.5300293 C-114.29421504 660.13264512 -114.29421504 660.13264512 -112.3125 654.1875 C-112.06386491 652.38569591 -111.85275355 650.5785954 -111.6640625 648.76953125 C-111.54756348 647.68824951 -111.43106445 646.60696777 -111.31103516 645.49291992 C-111.12613525 643.76392456 -111.12613525 643.76392456 -110.9375 642 C-109.00057776 624.69863672 -105.46367398 608.07797409 -101.3125 591.1875 C-102.21367554 591.11946167 -102.21367554 591.11946167 -103.13305664 591.05004883 C-109.49720558 590.50100188 -115.55111848 589.3967409 -121.75 587.875 C-122.67232422 587.65062256 -123.59464844 587.42624512 -124.54492188 587.19506836 C-134.49527683 584.72066472 -143.47830655 581.19591998 -152.73828125 576.8125 C-155.95491415 575.35007455 -159.18764851 574.02337889 -162.47241211 572.72705078 C-171.25568009 569.2504028 -179.31786062 565.01684405 -187.44995117 560.22851562 C-189.39703293 559.14025286 -191.38146934 558.18992067 -193.3984375 557.23828125 C-197.23672284 555.34768551 -200.19153142 552.93978517 -203.375 550.0625 C-209.72537603 544.47424445 -216.52689134 539.86815125 -223.62011719 535.28369141 C-229.52446435 531.45932343 -235.02735124 527.54215083 -240.1875 522.75 C-244.68513528 518.58578563 -249.48765777 515.28363008 -254.62109375 511.953125 C-259.36064565 508.84386889 -263.1367091 505.45461922 -266.8125 501.125 C-269.68369434 497.75118958 -272.59254431 495.61685882 -276.3125 493.1875 C-278.35142492 491.25924741 -280.29924776 489.25944266 -282.25 487.2421875 C-284.14875251 485.35062724 -286.10752979 483.68578231 -288.1875 482 C-297.97444596 473.53977166 -310.3600028 458.02359713 -311.51416016 444.89331055 C-311.61871671 442.1750976 -311.64084615 439.47017832 -311.625 436.75 C-311.62081055 435.771521 -311.61662109 434.79304199 -311.61230469 433.78491211 C-311.48559116 425.57886302 -310.36688226 418.14933339 -308.3125 410.1875 C-308.01675525 408.87692543 -307.72385481 407.56570623 -307.43359375 406.25390625 C-303.79497555 390.44500617 -293.51838518 378.69865345 -280.3671875 369.421875 C-276.20540486 366.92164056 -271.82837442 364.95509194 -267.3125 363.1875 C-266.67626709 362.92783447 -266.04003418 362.66816895 -265.38452148 362.40063477 C-247.99457231 355.85906556 -227.27558963 360.26325602 -209.625 363.8125 C-208.37201614 364.06067978 -208.37201614 364.06067978 -207.09371948 364.31387329 C-196.1343131 366.52041184 -185.7050911 369.50463552 -175.24987793 373.45899963 C-172.53704937 374.47908796 -169.80965619 375.45753265 -167.08198547 376.43710327 C-160.73037882 378.743402 -154.61048051 381.36144127 -148.52124023 384.30273438 C-143.56026227 386.67345588 -138.51020025 388.76868816 -133.41674805 390.83789062 C-123.19469267 394.99259542 -113.7338273 399.45713094 -104.3125 405.1875 C-102.52639022 406.15615064 -100.73484416 407.11485757 -98.9375 408.0625 C-88.07359297 413.96644948 -77.69787111 420.60598967 -67.921875 428.17578125 C-66.33580193 429.3985771 -64.72608678 430.59245318 -63.078125 431.73046875 C-58.07720183 435.19040978 -54.62341128 439.25323776 -50.9765625 444.11328125 C-49.47570369 446.27998483 -49.47570369 446.27998483 -47.3125 447.1875 C-47.08691406 446.41792969 -46.86132812 445.64835937 -46.62890625 444.85546875 C-44.84785802 439.89284474 -42.55499135 435.23797448 -40.25 430.5 C-39.73848389 429.44014893 -39.22696777 428.38029785 -38.69995117 427.28833008 C-35.79751744 421.28251505 -32.87418121 415.2870148 -29.94450378 409.29444885 C-28.38825752 406.11035605 -26.83446525 402.92506762 -25.2805481 399.73983765 C-24.13607621 397.39766754 -22.98698208 395.05780398 -21.83764648 392.71801758 C-21.12725562 391.26392539 -20.41704224 389.80974647 -19.70703125 388.35546875 C-19.37839081 387.68981903 -19.04975037 387.02416931 -18.71115112 386.33834839 C-17.24811377 383.33141944 -15.92489875 380.48946677 -15.3125 377.1875 C-17.13007812 376.89359375 -17.13007812 376.89359375 -18.984375 376.59375 C-30.19242175 374.64221799 -40.2229105 371.59026482 -50.6640625 367.08984375 C-53.81152089 365.74567902 -56.92630527 364.67074099 -60.21875 363.73828125 C-65.77993558 362.13668134 -70.92639394 359.82660568 -76.1875 357.4375 C-83.51304875 354.1605607 -90.79985792 351.26723817 -98.4375 348.8125 C-109.60113078 345.13520002 -119.3382675 339.31384734 -129.3125 333.1875 C-130.64923843 332.39108532 -131.98643571 331.59543999 -133.32421875 330.80078125 C-141.59502246 325.79214053 -148.38481497 319.84800159 -155.3125 313.1875 C-157.18001978 311.4709926 -159.05452215 309.76203588 -160.9375 308.0625 C-161.73414063 307.33804687 -162.53078125 306.61359375 -163.3515625 305.8671875 C-165.21063881 304.13750675 -165.21063881 304.13750675 -167.3125 303.1875 C-167.3125 302.5275 -167.3125 301.8675 -167.3125 301.1875 C-167.89 301.001875 -168.4675 300.81625 -169.0625 300.625 C-173.73768824 297.63807418 -176.05537038 291.4255401 -177.3125 286.1875 C-178.30900217 277.13156799 -176.11118041 268.97220741 -170.49609375 261.82421875 C-169.0861469 260.00178786 -169.0861469 260.00178786 -167.875 256.8125 C-166.23444936 253.00642252 -164.19567019 249.95968144 -161.83203125 246.578125 C-160.29390312 244.15824218 -159.2375879 241.76284478 -158.125 239.125 C-154.83648124 232.36878037 -148.94119402 227.85292962 -141.90234375 225.3203125 C-139.37412986 224.77161833 -136.88232222 224.49096666 -134.3125 224.1875 C-133.24150055 224.03014374 -132.1705011 223.87278748 -131.06704712 223.71066284 C-121.94153694 222.38606547 -112.93671852 221.77094437 -103.7109375 221.5703125 C-102.20641043 221.53241138 -100.70188366 221.49449798 -99.19735718 221.45657349 C-81.06026698 221.02918479 -62.91745391 221.0356811 -44.77636719 221.05712891 C-39.83086165 221.06294654 -34.88540898 221.05945038 -29.93990517 221.05355644 C-26.0812235 221.04995226 -22.22255456 221.0510867 -18.36387253 221.05368423 C-16.53705209 221.05434773 -14.71023047 221.05354542 -12.88341141 221.05120468 C-10.35925417 221.04866755 -7.83518575 221.05252826 -5.31103516 221.05810547 C-4.20020821 221.05506912 -4.20020821 221.05506912 -3.06694031 221.05197144 C0.6539729 221.06721472 4.06369561 221.3537678 7.6875 222.1875 C9.81584292 222.31875585 11.94673206 222.41147944 14.078125 222.4765625 C30.66388152 223.15123013 45.46378517 225.17860356 61.31689453 230.57666016 C63.89223112 231.24025358 66.0387377 231.38206404 68.6875 231.1875 C70.53996493 229.97648325 70.53996493 229.97648325 72.0625 228.1875 C72.65289063 227.55199219 73.24328125 226.91648437 73.8515625 226.26171875 C74.45742187 225.57722656 75.06328125 224.89273437 75.6875 224.1875 C76.31398438 223.49269531 76.94046875 222.79789063 77.5859375 222.08203125 C80.4360469 218.8771614 83.1255985 215.62732141 85.6875 212.1875 C84.60033691 212.21106567 84.60033691 212.21106567 83.49121094 212.23510742 C80.14005651 212.29828143 76.78902803 212.33674886 73.4375 212.375 C72.29796875 212.40013672 71.1584375 212.42527344 69.984375 212.45117188 C63.1563451 212.50936531 57.32274442 211.77823367 50.75976562 209.93823242 C43.96532919 208.2779581 36.88946688 208.01680197 29.93359375 207.45898438 C17.08583607 206.26989837 5.46375155 202.08700553 -3.3125 192.1875 C-7.67297138 185.9199154 -10.98167757 179.03817003 -14.3125 172.1875 C-15.20384393 170.40400448 -16.09704527 168.62143592 -16.9921875 166.83984375 C-23.10331566 154.65130227 -26.34035708 142.78447257 -28.8125 129.375 C-30.11744896 122.41364247 -31.4306312 115.46931597 -33 108.5625 C-34.04324257 103.87079031 -34.6814581 99.21131634 -35.1875 94.4375 C-35.9212967 87.56214398 -37.59090759 81.18110215 -39.5637207 74.56542969 C-41.0309821 69.54513164 -41.73083987 64.87299728 -42.01171875 59.640625 C-42.71257613 53.92454145 -45.55064846 48.73841206 -48.0625 43.625 C-50.30622713 37.45475038 -50.29624424 33.22782226 -47.73046875 27.30078125 C-42.29571432 15.66009738 -37.43038453 8.31503593 -25.3125 3.1875 C-24.53003906 2.83300781 -23.74757813 2.47851562 -22.94140625 2.11328125 C-15.5662706 -0.48390619 -7.71948217 0.00420222 0 0 Z M-5.3125 40.1875 C-4.85875 42.229375 -4.405 44.27125 -3.9375 46.375 C-2.89628273 51.20157724 -2.00618973 55.9838995 -1.3125 60.875 C-0.98816966 62.98057315 -0.655043 65.08481297 -0.3125 67.1875 C-0.14492187 68.21617188 0.02265625 69.24484375 0.1953125 70.3046875 C1.23234309 75.67197906 1.23234309 75.67197906 4.58984375 79.7578125 C7.31303809 81.16619149 9.60010303 82.1875 12.6875 82.1875 C11.33660027 76.2312603 9.93194525 70.49184151 7.5 64.875 C4.79594317 58.35406295 5.2902258 53.46071218 7.73828125 46.984375 C8.78854009 44.99623069 10.10571469 43.76485454 11.6875 42.1875 C11.6875 41.5275 11.6875 40.8675 11.6875 40.1875 C6.0775 40.1875 0.4675 40.1875 -5.3125 40.1875 Z M47.6875 58.1875 C47.78069965 61.08757401 47.78069965 61.08757401 48.6875 64.1875 C50.96848188 66.06425374 50.96848188 66.06425374 53.875 67.3125 C54.865 67.80234375 55.855 68.2921875 56.875 68.796875 C58.2671875 69.48523437 58.2671875 69.48523437 59.6875 70.1875 C61.74983961 71.45302658 63.70714373 72.7958983 65.6875 74.1875 C67.87240007 71.51107511 67.87240007 71.51107511 67.6875 69.1875 C66.66269531 68.64480469 65.63789062 68.10210938 64.58203125 67.54296875 C63.22131697 66.82038255 61.86064196 66.09772238 60.5 65.375 C59.82646484 65.01857422 59.15292969 64.66214844 58.45898438 64.29492188 C54.80587273 62.35253568 51.21271488 60.35738955 47.6875 58.1875 Z M100.6875 95.1875 C99.05073743 97.1475281 99.05073743 97.1475281 97.6875 99.1875 C99.31315013 103.29527932 102.27493838 106.04648267 105.359375 109.08984375 C105.91941223 109.64942276 106.47944946 110.20900177 107.05645752 110.78553772 C108.24100254 111.96706693 109.42797181 113.14617002 110.6171875 114.32299805 C112.42240522 116.11005706 114.21958938 117.90488981 116.015625 119.70117188 C117.17140631 120.85203339 118.32764201 122.00243877 119.484375 123.15234375 C120.01585144 123.68270737 120.54732788 124.21307098 121.09490967 124.75950623 C124.48121017 128.10374521 127.99354489 131.18572993 131.6875 134.1875 C133.13686971 131.53308113 133.13686971 131.53308113 133.6875 128.1875 C132.22145577 125.70725222 130.94777489 124.05385089 129 122 C128.47486816 121.41847168 127.94973633 120.83694336 127.40869141 120.23779297 C125.53203963 118.19010189 123.61626574 116.18619078 121.6875 114.1875 C120.89230957 113.3620166 120.09711914 112.5365332 119.27783203 111.68603516 C116.71968236 109.04771416 114.14632255 106.42567583 111.5625 103.8125 C110.72114502 102.96147705 109.87979004 102.1104541 109.01293945 101.23364258 C107.82704224 100.05451294 107.82704224 100.05451294 106.6171875 98.8515625 C105.90804199 98.14467285 105.19889648 97.4377832 104.46826172 96.70947266 C102.82452976 94.97093024 102.82452976 94.97093024 100.6875 95.1875 Z M14.6875 136.1875 C15.26393856 141.80777597 17.26381714 146.17104013 19.6875 151.1875 C20.23969524 152.46870177 20.79176943 153.74995573 21.34375 155.03125 C24.49031723 162.42482575 24.49031723 162.42482575 30.30078125 167.59375 C33.18638745 168.14883125 35.75235771 168.27251791 38.6875 168.1875 C40.13576172 168.22423828 40.13576172 168.22423828 41.61328125 168.26171875 C43.97968592 168.30523114 46.3231363 168.27981789 48.6875 168.1875 C46.57910243 164.32210445 44.04636171 161.15818907 41.15234375 157.875 C39.98194474 156.52670034 38.88375557 155.11584076 37.8125 153.6875 C35.30910771 150.7423326 32.507251 148.37939993 29.55859375 145.890625 C27.6875 144.1875 27.6875 144.1875 25.75 141.4375 C22.69004497 138.09936724 18.98274586 137.31637872 14.6875 136.1875 Z M93.6875 154.1875 C95.10430244 158.50796898 97.22513785 161.19211199 100.3125 164.5 C101.12976562 165.38300781 101.94703125 166.26601562 102.7890625 167.17578125 C103.41554688 167.83964844 104.04203125 168.50351563 104.6875 169.1875 C105.6775 168.5275 106.6675 167.8675 107.6875 167.1875 C105.73558712 165.01472848 103.77652463 162.84927539 101.8125 160.6875 C101.25691406 160.06746094 100.70132812 159.44742187 100.12890625 158.80859375 C99.32646484 157.92880859 99.32646484 157.92880859 98.5078125 157.03125 C98.01555176 156.48662109 97.52329102 155.94199219 97.01611328 155.38085938 C95.7371578 153.96475859 95.7371578 153.96475859 93.6875 154.1875 Z M267.6875 208.1875 C268.99726671 211.14238432 270.31082907 212.90681076 272.75 215 C281.14436698 223.18624218 286.27539777 235.1528217 291.87719727 245.33959961 C294.79925313 250.64166686 297.83791911 255.86257989 300.9375 261.0625 C315.40866288 285.4327772 315.40866288 285.4327772 313.6875 298.1875 C311.3049269 304.74788733 306.72061332 308.07363506 300.6875 311.1875 C301.0175 311.8475 301.3475 312.5075 301.6875 313.1875 C308.2875 313.1875 314.8875 313.1875 321.6875 313.1875 C319.37393911 287.78325375 312.00955534 262.48129257 297.20703125 241.390625 C295.4906958 238.9021592 293.94449808 236.33335777 292.375 233.75 C289.28777421 228.86644594 285.76761856 224.68869843 281.8203125 220.48046875 C279.9452451 218.46459958 278.21963327 216.39729075 276.5 214.25 C273.97052556 211.24580627 271.35809472 209.67321691 267.6875 208.1875 Z M211.6875 250.1875 C213.75524779 262.10745786 223.41870876 271.11736682 231.5625 279.4375 C232.22217773 280.12320068 232.88185547 280.80890137 233.56152344 281.51538086 C238.1916234 286.16192778 242.86328957 289.22837194 248.6875 292.1875 C249.87779907 292.86560214 251.06315731 293.55248857 252.2421875 294.25 C262.60317331 300.49165008 262.60317331 300.49165008 273.6875 305.1875 C274.6775 304.8575 275.6675 304.5275 276.6875 304.1875 C276.11902344 303.78660156 275.55054688 303.38570312 274.96484375 302.97265625 C269.73832494 299.12475175 265.84345426 295.2144896 262.09765625 289.91015625 C261.63230469 289.34167969 261.16695312 288.77320313 260.6875 288.1875 C260.0275 288.1875 259.3675 288.1875 258.6875 288.1875 C258.29884766 287.32318359 258.29884766 287.32318359 257.90234375 286.44140625 C256.59150618 284.00940213 255.09152166 282.18037579 253.25 280.125 C252.65316406 279.45339844 252.05632813 278.78179688 251.44140625 278.08984375 C250.86261719 277.46207031 250.28382813 276.83429688 249.6875 276.1875 C249.16027344 275.61128906 248.63304687 275.03507812 248.08984375 274.44140625 C246.7525443 272.96531599 246.7525443 272.96531599 244.6875 273.1875 C244.4709375 272.58550781 244.254375 271.98351563 244.03125 271.36328125 C242.21596018 268.4239893 240.32240311 267.77681879 237.1875 266.375 C232.09872192 263.96132629 227.63655449 261.24230221 223.08984375 257.93359375 C219.37046718 255.230242 215.52542759 252.71830732 211.6875 250.1875 Z M-80.3125 261.1875 C-76.35904267 263.82313822 -72.21802276 265.12972109 -67.75 266.6875 C-66.89341797 266.99558594 -66.03683594 267.30367187 -65.15429688 267.62109375 C-59.25724367 269.688834 -53.46362349 271.08217682 -47.3125 272.1875 C-45.9925 268.5575 -44.6725 264.9275 -43.3125 261.1875 C-55.5225 261.1875 -67.7325 261.1875 -80.3125 261.1875 Z M0.6875 262.1875 C3.62126022 264.41754506 6.60287513 266.39363447 9.75 268.3125 C26.88211641 279.22101916 26.88211641 279.22101916 30.6875 289.1875 C33.00546021 287.06624269 34.39300303 285.11741943 35.73046875 282.28125 C36.08173828 281.53746094 36.43300781 280.79367187 36.79492188 280.02734375 C37.15134766 279.25519531 37.50777344 278.48304688 37.875 277.6875 C38.42704102 276.52927734 38.42704102 276.52927734 38.99023438 275.34765625 C41.10802266 270.96307916 41.10802266 270.96307916 41.6875 266.1875 C28.30159675 262.25338056 14.52777994 262.45855504 0.6875 262.1875 Z M-7.0859375 324.16015625 C-8.33014062 326.21873097 -8.33014062 326.21873097 -9.32421875 328.32421875 C-10.73877517 330.99118876 -12.92416464 332.41330802 -15.3125 334.1875 C-15.3125 334.8475 -15.3125 335.5075 -15.3125 336.1875 C-11.38266133 337.43604249 -7.39809328 337.48108419 -3.3125 337.5625 C-2.6009375 337.59988281 -1.889375 337.63726563 -1.15625 337.67578125 C2.48137625 337.7368608 4.26343762 337.57622385 6.984375 335.08203125 C8.82833323 331.94814812 10.44079734 328.81466724 11.9375 325.5 C12.45828125 324.36175781 12.9790625 323.22351562 13.515625 322.05078125 C14.81376011 319.39463974 14.81376011 319.39463974 14.6875 317.1875 C7.33005704 316.33198338 -2.02387304 318.52944578 -7.0859375 324.16015625 Z M-260.9375 405.625 C-262.41089844 406.86056641 -262.41089844 406.86056641 -263.9140625 408.12109375 C-267.16319714 410.92042962 -267.49025412 411.67442156 -268.25 415.875 C-268.79608478 418.78608354 -269.355231 421.29670146 -270.4375 424.0625 C-272.02903883 429.74656725 -273.06444319 435.49057814 -270.43505859 441.0390625 C-269.2903582 442.99536806 -268.06504696 444.84158169 -266.75 446.6875 C-266.33266602 447.27466797 -265.91533203 447.86183594 -265.48535156 448.46679688 C-262.28418283 452.62135194 -258.98533481 454.83086638 -254.3125 457.1875 C-255.59509566 453.84211223 -257.05661276 450.7171591 -258.75 447.5625 C-263.32176506 438.43249582 -266.4448971 428.05993456 -263.69140625 417.89453125 C-261.55602789 412.83605717 -258.67464839 410.97983237 -253.953125 408.41796875 C-251.91684433 407.19046611 -251.91684433 407.19046611 -251.8125 403.875 C-252.06 402.5446875 -252.06 402.5446875 -252.3125 401.1875 C-256.46780884 401.1875 -257.80101768 402.9726449 -260.9375 405.625 Z M-190.3125 411.1875 C-187.30671804 414.4161988 -184.14345183 416.74394953 -180.4375 419.125 C-177.12796607 421.28583647 -173.90975423 423.39137262 -170.9375 426 C-168.151179 428.32193417 -165.71872698 429.92867699 -162.3125 431.1875 C-158.73597063 430.26782102 -157.41166048 428.07901965 -155.3125 425.1875 C-172.24867811 415.92834524 -172.24867811 415.92834524 -190.3125 411.1875 Z M-114.3125 446.1875 C-109.31749883 453.23173243 -103.80488397 459.08151352 -97.25 464.6875 C-94.05876255 467.43516777 -91.33795837 470.3361378 -88.66796875 473.5859375 C-87.21410916 475.36320556 -87.21410916 475.36320556 -84.9375 477.4375 C-79.93245904 482.68087624 -75.82191057 488.76469125 -71.9375 494.875 C-71.40125 495.638125 -70.865 496.40125 -70.3125 497.1875 C-69.6525 497.1875 -68.9925 497.1875 -68.3125 497.1875 C-67.3225 494.5475 -66.3325 491.9075 -65.3125 489.1875 C-66.47265625 487.84558594 -66.47265625 487.84558594 -67.65625 486.4765625 C-68.70847172 485.25532756 -69.76054445 484.03396423 -70.8125 482.8125 C-71.36494385 482.17344727 -71.9173877 481.53439453 -72.48657227 480.87597656 C-75.54662272 477.31730081 -78.45010425 473.70682202 -81.25 469.9375 C-89.18841907 459.93672876 -101.34083378 452.52260435 -112.3125 446.1875 C-112.9725 446.1875 -113.6325 446.1875 -114.3125 446.1875 Z M170.6875 447.1875 C171.6875 450.1875 171.6875 450.1875 171.6875 450.1875 Z M171.6875 454.1875 C172.6875 456.1875 172.6875 456.1875 172.6875 456.1875 Z M-254.3125 457.1875 C-253.3125 459.1875 -253.3125 459.1875 -253.3125 459.1875 Z M171.6875 460.1875 C171.52894531 460.76757812 171.37039063 461.34765625 171.20703125 461.9453125 C169.55898313 467.46308687 167.65168234 471.00903753 163.6875 475.1875 C164.656875 475.97125 165.62625 476.755 166.625 477.5625 C168.52712346 479.10038705 169.58379957 479.98009913 170.6875 482.1875 C171.3475 482.1875 172.0075 482.1875 172.6875 482.1875 C172.6875 474.9275 172.6875 467.6675 172.6875 460.1875 C172.3575 460.1875 172.0275 460.1875 171.6875 460.1875 Z M-151.0625 530.1875 C-152.26132812 530.4659375 -152.26132812 530.4659375 -153.484375 530.75 C-154.08765625 530.894375 -154.6909375 531.03875 -155.3125 531.1875 C-152.20503702 533.73216846 -149.11021204 535.27282293 -145.41015625 536.81640625 C-144.27255859 537.29400391 -143.13496094 537.77160156 -141.96289062 538.26367188 C-140.77888672 538.75416016 -139.59488281 539.24464844 -138.375 539.75 C-137.19486328 540.24435547 -136.01472656 540.73871094 -134.79882812 541.24804688 C-131.63991166 542.56917832 -128.4790883 543.88486918 -125.3125 545.1875 C-124.43964355 545.54690674 -123.56678711 545.90631348 -122.66748047 546.27661133 C-111.86162661 550.45623405 -100.81814862 551.84392369 -89.3125 551.1875 C-88.9825 549.8675 -88.6525 548.5475 -88.3125 547.1875 C-95.30336607 544.09506983 -102.40380712 541.98865447 -109.796875 540.1171875 C-113.02805304 539.26272042 -116.14963966 538.26344094 -119.3125 537.1875 C-120.59115069 536.78878459 -121.87119476 536.39451966 -123.15234375 536.00390625 C-123.82330078 535.79830078 -124.49425781 535.59269531 -125.18554688 535.38085938 C-126.55718683 534.96171112 -127.92958205 534.54502616 -129.30273438 534.13085938 C-132.65875487 533.09799017 -135.86717616 531.97983344 -139.06640625 530.52734375 C-143.40935483 528.7347669 -146.6247389 529.14332092 -151.0625 530.1875 Z M103.5625 670.1875 C102.94375 670.8475 102.325 671.5075 101.6875 672.1875 C103.6675 673.1775 103.6675 673.1775 105.6875 674.1875 C107.9648501 671.37240007 107.9648501 671.37240007 107.6875 668.1875 C105.44387427 667.9590451 105.44387427 667.9590451 103.5625 670.1875 Z " fill="#47C341" transform="translate(1167.3125,1166.8125)"/>
<path d="M0 0 C4.65163005 2.64189942 8.55537086 7.02652739 10.31147766 12.13253784 C10.94280062 15.54087782 10.89737077 18.92571565 10.89526367 22.37939453 C10.89862228 23.1703653 10.9019809 23.96133606 10.90544128 24.77627563 C10.9149469 27.39513725 10.91689531 30.01393469 10.91796875 32.6328125 C10.92118553 34.46727524 10.92454992 36.30173773 10.92805481 38.13619995 C10.93404788 41.99135938 10.93589492 45.8464964 10.93530273 49.70166016 C10.935202 54.59188901 10.9487605 59.48196974 10.96607494 64.37216377 C10.97732147 68.16967396 10.97921798 71.96715002 10.97869301 75.76467514 C10.97985779 77.56400937 10.9841929 79.36334494 10.99202538 81.16266251 C11.03357265 91.70828683 10.57561447 101.98998107 9.23432922 112.45472717 C8.29295931 119.87700921 8.03108697 127.36873863 7.64550781 134.83618164 C5.86765238 168.66028893 5.86765238 168.66028893 -5.25 179.5 C-11.75255925 184.09937118 -18.48641826 184.16462424 -26.25 183.5 C-45.14089189 179.0198338 -58.32358231 162.32318239 -68.0078125 146.65625 C-69.44182559 144.28179112 -70.85678965 141.89856728 -72.25 139.5 C-73.013125 140.263125 -73.77625 141.02625 -74.5625 141.8125 C-75.449375 142.699375 -76.33625 143.58625 -77.25 144.5 C-77.806875 145.098125 -78.36375 145.69625 -78.9375 146.3125 C-80.25 147.5 -80.25 147.5 -82.25 147.5 C-82.58 148.49 -82.91 149.48 -83.25 150.5 C-84.88671875 152.078125 -84.88671875 152.078125 -86.9375 153.75 C-97.42666055 162.7168399 -105.11797025 174.7848446 -112.25 186.5 C-116.45570562 193.33571988 -120.52549767 199.37471549 -128.25 202.5 C-137.90412693 203.59822079 -144.16743737 202.35113928 -151.78125 196.58203125 C-158.68582817 190.84513909 -162.43197928 184.95406216 -165.25 176.5 C-165.33342292 174.731322 -165.35733145 172.95958271 -165.34765625 171.18896484 C-165.34439835 170.08978226 -165.34114044 168.99059967 -165.33778381 167.85810852 C-165.32944016 166.65454208 -165.3210965 165.45097565 -165.3125 164.2109375 C-165.30606538 162.27405382 -165.29964311 160.33717005 -165.29370975 158.40028477 C-165.28671443 156.32463728 -165.27758579 154.24900757 -165.26803589 152.17337036 C-165.23586506 144.90337237 -165.22653062 137.63334344 -165.22265625 130.36328125 C-165.22222887 129.62155859 -165.22180149 128.87983593 -165.22136116 128.11563683 C-165.21688876 112.42806017 -165.40748741 96.74766191 -165.6875 81.0625 C-165.70723877 79.88492126 -165.72697754 78.70734253 -165.74731445 77.49407959 C-165.81842493 54.68087714 -165.81842493 54.68087714 -168.3125 32.0625 C-169.69810507 24.33061217 -170.60673962 17.3899469 -166.59375 10.32421875 C-163.59031547 6.24688176 -160.06506293 3.10502098 -155.25 1.5 C-142.60048802 0.55083027 -142.60048802 0.55083027 -137.25 4.5 C-121.28056464 20.12227372 -125.0213565 54.41584011 -124.76757812 74.921875 C-124.74032921 77.53124425 -124.71363927 80.1406194 -124.6875 82.75 C-124.62869563 87.9427789 -124.56468903 93.13546636 -124.49609375 98.328125 C-124.47221085 100.17440491 -124.47221085 100.17440491 -124.44784546 102.0579834 C-124.30170729 111.88994034 -123.89151336 121.68861913 -123.25 131.5 C-122.6413208 130.88125 -122.0326416 130.2625 -121.40551758 129.625 C-117.73955601 125.90464485 -114.07199227 122.28779141 -110.0625 118.9375 C-102.2515512 112.19168058 -96.73982453 102.81714226 -91.7890625 93.85546875 C-87.64490301 86.40285045 -82.66897769 80.4727579 -74.75 76.9375 C-67.8221925 76.07152406 -62.01203621 76.68814429 -56.1640625 80.73046875 C-48.45230562 87.85990929 -44.57953379 98.45550786 -41.9375 108.375 C-40.1549637 114.66394829 -36.69990263 119.99905936 -33.25 125.5 C-33.18941406 124.37980469 -33.12882813 123.25960938 -33.06640625 122.10546875 C-32.98198576 120.63280016 -32.89733851 119.16014456 -32.8125 117.6875 C-32.77318359 116.94951172 -32.73386719 116.21152344 -32.69335938 115.45117188 C-32.50618965 112.26928658 -32.26279207 109.53837622 -31.25 106.5 C-29.90623251 97.5970261 -30.08769576 88.5299465 -30.05076981 79.55005646 C-30.03882658 76.90079204 -30.01934282 74.25167966 -29.99765015 71.60247803 C-29.93650625 64.07862403 -29.88190295 56.55479531 -29.84863281 49.03076172 C-29.827654 44.40787305 -29.79234548 39.78527927 -29.74787521 35.16255951 C-29.73376384 33.40999572 -29.72500381 31.65737998 -29.72182083 29.90476227 C-29.71689452 27.45474896 -29.69369951 25.00551751 -29.66650391 22.55566406 C-29.67101311 21.48322197 -29.67101311 21.48322197 -29.6756134 20.38911438 C-29.56028918 13.36888987 -27.26222257 7.51222257 -22.25 2.5 C-15.46544242 -2.31687847 -7.71073521 -3.29619215 0 0 Z " fill="#FFFFFF" transform="translate(1015.25,1211.5)"/>
<path d="M0 0 C5.1715983 3.15178952 8.57837569 7.2736864 10.9375 12.8125 C11.84981575 18.69186818 11.57603581 23.36513473 8.8125 28.6875 C5.08514289 33.12003277 1.21433458 36.84280198 -4.5 38.4375 C-6.3871875 38.5921875 -6.3871875 38.5921875 -8.3125 38.75 C-14.88137548 39.37870425 -21.03376458 41.6287205 -27.26171875 43.69628906 C-29.57702619 44.46300737 -31.89735544 45.21286906 -34.21875 45.9609375 C-41.84703957 48.43877685 -49.21609564 51.05568726 -56.5 54.4375 C-57.16 54.4375 -57.82 54.4375 -58.5 54.4375 C-58.5 69.2875 -58.5 84.1375 -58.5 99.4375 C-53.55 98.1175 -48.6 96.7975 -43.5 95.4375 C-40.50428169 95.06765823 -37.50486497 94.72367762 -34.5 94.4375 C-33.571875 94.1075 -32.64375 93.7775 -31.6875 93.4375 C-24.19271929 91.08619625 -15.99611432 91.32723119 -8.1875 91.1875 C-6.89199219 91.16171875 -5.59648438 91.1359375 -4.26171875 91.109375 C2.01779668 91.65712089 6.88419361 94.0781273 11.5 98.4375 C15.290462 103.85244571 16.19025315 108.85544319 15.5 115.4375 C13.18334728 122.27162552 10.03993806 127.16753097 3.5 130.4375 C0.63617165 131.27887818 -2.12723982 131.65448038 -5.09765625 131.90234375 C-5.97631348 131.97904297 -6.8549707 132.05574219 -7.76025391 132.13476562 C-9.14736572 132.25368164 -9.14736572 132.25368164 -10.5625 132.375 C-17.14504152 132.97025958 -23.6419294 133.60847279 -30.12109375 134.95703125 C-32.5 135.4375 -32.5 135.4375 -35.03515625 135.76171875 C-37.90974893 136.15544058 -40.67099178 136.79341134 -43.5 137.4375 C-44.14759277 137.51178223 -44.79518555 137.58606445 -45.46240234 137.66259766 C-50.08765601 138.23901655 -54.16998919 139.25855659 -57.87451172 142.18115234 C-63.94940832 150.61374387 -63.43114078 165.13663279 -64.18139648 175.20043945 C-64.5 178.4375 -64.5 178.4375 -65.5 180.4375 C-64.85966827 180.3489122 -64.21933655 180.2603244 -63.55960083 180.16905212 C-47.30241549 177.97405781 -31.30921896 176.93087449 -14.90673828 176.99145508 C-11.31357685 177.00014861 -7.72191939 176.97073256 -4.12890625 176.93945312 C-1.81250047 176.93784483 0.50390809 176.9384115 2.8203125 176.94140625 C3.87864288 176.93017227 4.93697327 176.91893829 6.02737427 176.90736389 C13.45476827 176.97727787 18.82541831 178.19522204 24.55859375 183.25390625 C25.01363281 183.83011719 25.46867187 184.40632813 25.9375 185 C26.41058594 185.57878906 26.88367187 186.15757812 27.37109375 186.75390625 C30.64574166 191.63755072 29.89545046 197.81911894 29.5 203.4375 C27.79059854 208.86736347 24.1375326 212.29533506 19.5 215.4375 C15.94257248 217.08833439 13.11772711 217.69586433 9.20654297 217.74047852 C8.1755246 217.75712051 7.14450623 217.77376251 6.08224487 217.79090881 C4.98002594 217.79932297 3.87780701 217.80773712 2.7421875 217.81640625 C1.03218063 217.84189796 1.03218063 217.84189796 -0.71237183 217.86790466 C-4.34985846 217.92097995 -7.98733412 217.96131165 -11.625 218 C-15.26974937 218.04393289 -18.91441065 218.09062743 -22.55905151 218.14280701 C-24.82601299 218.17475257 -27.09305231 218.20164623 -29.36013794 218.22303772 C-30.38485199 218.23652756 -31.40956604 218.2500174 -32.46533203 218.26391602 C-33.36736359 218.27342789 -34.26939514 218.28293976 -35.19876099 218.29273987 C-37.66142955 218.34906292 -37.66142955 218.34906292 -40.5 219.4375 C-42.38140608 219.53053656 -44.26319182 219.61973159 -46.14599609 219.67797852 C-52.43013615 219.88102576 -57.91344291 220.31819302 -63.875 222.5 C-69.43366007 224.41363707 -74.48536555 224.87847539 -80.3125 224.9375 C-81.10124512 224.95562744 -81.88999023 224.97375488 -82.70263672 224.99243164 C-89.3526229 224.92446023 -94.54422385 223.04553778 -99.55859375 218.62109375 C-100.01363281 218.04488281 -100.46867187 217.46867187 -100.9375 216.875 C-101.41058594 216.29621094 -101.88367187 215.71742188 -102.37109375 215.12109375 C-104.53772832 211.88988441 -104.65796609 208.8347561 -104.875 205.0625 C-105.23657439 200.60697042 -106.11179295 198.21882782 -108.5 194.4375 C-110.10127216 188.49845325 -109.31404278 183.8602821 -107.390625 178.125 C-99.91098311 155.55485255 -100.01713095 131.54905822 -99.88873291 108.05407715 C-99.86613048 104.26189142 -99.83172832 100.4698244 -99.796875 96.67773438 C-99.79006336 95.92940275 -99.78325172 95.18107113 -99.77623367 94.41006279 C-99.70621175 86.86409908 -99.62229398 79.31834689 -99.52781677 71.77265167 C-99.49919307 69.36975979 -99.47508865 66.96684796 -99.45129395 64.56390381 C-99.40910802 60.53421036 -99.34517041 56.50533313 -99.26683426 52.47618675 C-99.2403399 50.95763473 -99.22043944 49.43895089 -99.20768356 47.92022133 C-99.11882062 38.02881124 -98.61553129 30.64485351 -91.5625 23.125 C-87.46385951 19.87224914 -83.02999873 19.24950711 -77.98828125 18.26171875 C-74.44752661 17.42510147 -71.43776271 16.24414811 -68.125 14.75 C-54.10455626 8.47522552 -39.44556025 3.58984433 -24.484375 0.12890625 C-16.51126695 -1.71826669 -7.84385024 -3.56400185 0 0 Z " fill="#FFFFFF" transform="translate(1499.5,1653.5625)"/>
</svg>
