<?xml version="1.0" encoding="UTF-8"?>
<svg version="1.1" xmlns="http://www.w3.org/2000/svg" width="32" height="32">
<path d="M0 0 C3.06393013 -0.25532751 4.63233212 -0.21861333 7.3125 1.375 C7.869375 1.91125 8.42625 2.4475 9 3 C9 3.66 9 4.32 9 5 C10.98 5.66 12.96 6.32 15 7 C15.33 9.31 15.66 11.62 16 14 C14.02 14 12.04 14 10 14 C10.33 15.65 10.66 17.3 11 19 C12.32 18.67 13.64 18.34 15 18 C16.04005702 21.38018531 16.08004482 24.4780279 16 28 C14.02 28 12.04 28 10 28 C10 25.69 10 23.38 10 21 C9.34 21.33 8.68 21.66 8 22 C8 23.98 8 25.96 8 28 C5.625 27.6875 5.625 27.6875 3 27 C2.34 26.01 1.68 25.02 1 24 C0.67 25.32 0.34 26.64 0 28 C-0.99 27.67 -1.98 27.34 -3 27 C-2.67 25.68 -2.34 24.36 -2 23 C-2.5775 22.896875 -3.155 22.79375 -3.75 22.6875 C-6.32049158 21.90207202 -7.93657284 20.69495803 -10 19 C-9.67 17.35 -9.34 15.7 -9 14 C-7.35 13.67 -5.7 13.34 -4 13 C-4.66 11.68 -5.32 10.36 -6 9 C-7.32 9.33 -8.64 9.66 -10 10 C-10 7.36 -10 4.72 -10 2 C-9.34 2 -8.68 2 -8 2 C-7.34 2.66 -6.68 3.32 -6 4 C-5.67 3.34 -5.34 2.68 -5 2 C-4.34 2 -3.68 2 -3 2 C-3 3.98 -3 5.96 -3 8 C-1.68 8 -0.36 8 1 8 C0.67 5.36 0.34 2.72 0 0 Z M6 10 C6.99 10.99 7.98 11.98 9 13 C8.67 12.01 8.34 11.02 8 10 C7.34 10 6.68 10 6 10 Z M3 16 C3 16.99 3 17.98 3 19 C3.66 19 4.32 19 5 19 C4.67 18.01 4.34 17.02 4 16 C3.67 16 3.34 16 3 16 Z " fill="#45C23F" transform="translate(13,2)"/>
<path d="M0 0 C0.99 0.33 1.98 0.66 3 1 C3 4 3 7 3 10 C1.02 10 -0.96 10 -3 10 C-2.88637738 8.5199159 -2.75877092 7.04089926 -2.625 5.5625 C-2.55539063 4.73878906 -2.48578125 3.91507813 -2.4140625 3.06640625 C-2.27742188 2.38449219 -2.14078125 1.70257812 -2 1 C-1.34 0.67 -0.68 0.34 0 0 Z " fill="#FEFEFE" transform="translate(26,20)"/>
<path d="M0 0 C0.66 0 1.32 0 2 0 C2.66 0.66 3.32 1.32 4 2 C4.33 1.34 4.66 0.68 5 0 C5.66 0 6.32 0 7 0 C7 2.31 7 4.62 7 7 C4.50935112 7.68707555 2.62113708 8 0 8 C0 5.36 0 2.72 0 0 Z " fill="#FEFEFE" transform="translate(3,4)"/>
</svg>
